<mxfile host="app.diagrams.net" modified="2023-10-28T14:02:49.282Z" agent="Mozilla/5.0 (Macintosh; Intel Mac OS X 10_15_7) AppleWebKit/537.36 (KHTML, like Gecko) Chrome/118.0.0.0 Safari/537.36" etag="op6gLcmKHNPbDKsjUaVK" version="22.0.8" type="github">
  <diagram name="Page-1" id="_lqPYmAU1KwCuKE_Vca8">
    <mxGraphModel dx="906" dy="617" grid="1" gridSize="10" guides="1" tooltips="1" connect="1" arrows="1" fold="1" page="1" pageScale="1" pageWidth="827" pageHeight="1169" math="0" shadow="0">
      <root>
        <mxCell id="0" />
        <mxCell id="1" parent="0" />
        <mxCell id="pGtb-EO9effSShoh3hVW-1" value="&amp;nbsp;Integration &lt;br style=&quot;font-size: 16px;&quot;&gt;&amp;nbsp;styles" style="rounded=0;whiteSpace=wrap;html=1;strokeColor=#C2C2C2;fontSize=16;align=left;verticalAlign=top;fontColor=#666666;" vertex="1" parent="1">
          <mxGeometry x="30" y="30" width="840" height="120" as="geometry" />
        </mxCell>
        <mxCell id="pGtb-EO9effSShoh3hVW-2" value="&amp;nbsp;Use case&lt;br&gt;&amp;nbsp;patterns" style="rounded=0;whiteSpace=wrap;html=1;strokeColor=#C2C2C2;fontSize=16;align=left;verticalAlign=top;fontColor=#666666;" vertex="1" parent="1">
          <mxGeometry x="30" y="190" width="840" height="120" as="geometry" />
        </mxCell>
        <mxCell id="pGtb-EO9effSShoh3hVW-3" value="&amp;nbsp;Integration&lt;br&gt;&amp;nbsp;technologues" style="rounded=0;whiteSpace=wrap;html=1;strokeColor=#C2C2C2;fontSize=16;align=left;verticalAlign=top;fontColor=#666666;" vertex="1" parent="1">
          <mxGeometry x="30" y="353.5" width="840" height="120" as="geometry" />
        </mxCell>
        <mxCell id="pGtb-EO9effSShoh3hVW-4" style="edgeStyle=none;shape=connector;rounded=0;orthogonalLoop=1;jettySize=auto;html=1;entryX=0.5;entryY=0;entryDx=0;entryDy=0;labelBackgroundColor=default;strokeColor=#C2C2C2;strokeWidth=3;align=center;verticalAlign=middle;fontFamily=Helvetica;fontSize=11;fontColor=default;startArrow=none;startFill=0;endArrow=none;endFill=0;" edge="1" parent="1" target="pGtb-EO9effSShoh3hVW-11">
          <mxGeometry relative="1" as="geometry">
            <mxPoint x="150" y="130" as="sourcePoint" />
          </mxGeometry>
        </mxCell>
        <mxCell id="pGtb-EO9effSShoh3hVW-5" value="&lt;font style=&quot;font-size: 14px;&quot;&gt;Process Integration&lt;/font&gt;" style="rounded=0;whiteSpace=wrap;html=1;fontColor=#FFFFFF;fillColor=#4FB81C;strokeColor=#4FB81C;" vertex="1" parent="1">
          <mxGeometry x="90" y="70" width="120" height="60" as="geometry" />
        </mxCell>
        <mxCell id="pGtb-EO9effSShoh3hVW-6" value="&lt;font style=&quot;font-size: 14px;&quot;&gt;Data &lt;br&gt;Integration&lt;/font&gt;" style="rounded=0;whiteSpace=wrap;html=1;fontColor=#FFFFFF;fillColor=#F0AB00;strokeColor=#F0AB00;" vertex="1" parent="1">
          <mxGeometry x="220" y="70" width="120" height="60" as="geometry" />
        </mxCell>
        <mxCell id="pGtb-EO9effSShoh3hVW-7" value="&lt;font style=&quot;font-size: 14px;&quot;&gt;Analytics Integration&lt;/font&gt;" style="rounded=0;whiteSpace=wrap;html=1;fontColor=#FFFFFF;fillColor=#4DC5FE;strokeColor=#4DC5FE;" vertex="1" parent="1">
          <mxGeometry x="350" y="70" width="120" height="60" as="geometry" />
        </mxCell>
        <mxCell id="pGtb-EO9effSShoh3hVW-8" value="&lt;font style=&quot;font-size: 14px;&quot;&gt;User &lt;br&gt;Integration&lt;/font&gt;" style="rounded=0;whiteSpace=wrap;html=1;fontColor=#FFFFFF;fillColor=#0275CB;strokeColor=#0275CB;" vertex="1" parent="1">
          <mxGeometry x="480" y="70" width="120" height="60" as="geometry" />
        </mxCell>
        <mxCell id="pGtb-EO9effSShoh3hVW-9" value="&lt;font style=&quot;font-size: 14px;&quot;&gt;Thing &lt;br&gt;Integration&lt;/font&gt;" style="rounded=0;whiteSpace=wrap;html=1;fontColor=#FFFFFF;fillColor=#E35500;strokeColor=#E35500;" vertex="1" parent="1">
          <mxGeometry x="610" y="70" width="120" height="60" as="geometry" />
        </mxCell>
        <mxCell id="pGtb-EO9effSShoh3hVW-10" value="&lt;font style=&quot;font-size: 14px;&quot;&gt;Cross Use&lt;br&gt;Cases&lt;br&gt;&lt;/font&gt;" style="rounded=0;whiteSpace=wrap;html=1;fontColor=#FFFFFF;fillColor=#800180;strokeColor=#800180;" vertex="1" parent="1">
          <mxGeometry x="740" y="70" width="120" height="60" as="geometry" />
        </mxCell>
        <mxCell id="pGtb-EO9effSShoh3hVW-11" value="&lt;div style=&quot;font-size: 14px;&quot;&gt;P1&lt;/div&gt;" style="rounded=0;whiteSpace=wrap;html=1;fontColor=#000000;fillColor=#D9EDCB;strokeColor=#D9EDCB;align=center;verticalAlign=middle;fontSize=14;" vertex="1" parent="1">
          <mxGeometry x="95" y="240" width="30" height="40" as="geometry" />
        </mxCell>
        <mxCell id="pGtb-EO9effSShoh3hVW-12" value="&lt;div style=&quot;font-size: 14px;&quot;&gt;P2&lt;/div&gt;" style="rounded=0;whiteSpace=wrap;html=1;fontColor=#000000;fillColor=#D9EDCB;strokeColor=#D9EDCB;align=center;verticalAlign=middle;fontSize=14;" vertex="1" parent="1">
          <mxGeometry x="135" y="240" width="30" height="40" as="geometry" />
        </mxCell>
        <mxCell id="pGtb-EO9effSShoh3hVW-13" value="&lt;div style=&quot;font-size: 14px;&quot;&gt;...&lt;/div&gt;" style="rounded=0;whiteSpace=wrap;html=1;fontColor=#000000;fillColor=#D9EDCB;strokeColor=#D9EDCB;align=center;verticalAlign=middle;fontSize=14;" vertex="1" parent="1">
          <mxGeometry x="175" y="240" width="30" height="40" as="geometry" />
        </mxCell>
        <mxCell id="pGtb-EO9effSShoh3hVW-14" value="&lt;div style=&quot;font-size: 14px;&quot;&gt;D1&lt;/div&gt;" style="rounded=0;whiteSpace=wrap;html=1;fontColor=#000000;fillColor=#FEEFC9;strokeColor=#FEEFC9;align=center;verticalAlign=middle;fontSize=14;" vertex="1" parent="1">
          <mxGeometry x="225" y="240" width="30" height="40" as="geometry" />
        </mxCell>
        <mxCell id="pGtb-EO9effSShoh3hVW-15" value="&lt;div style=&quot;font-size: 14px;&quot;&gt;D2&lt;/div&gt;" style="rounded=0;whiteSpace=wrap;html=1;fontColor=#000000;fillColor=#FEEFC9;strokeColor=#FEEFC9;align=center;verticalAlign=middle;fontSize=14;" vertex="1" parent="1">
          <mxGeometry x="265" y="240" width="30" height="40" as="geometry" />
        </mxCell>
        <mxCell id="pGtb-EO9effSShoh3hVW-16" value="&lt;div style=&quot;font-size: 14px;&quot;&gt;...&lt;/div&gt;" style="rounded=0;whiteSpace=wrap;html=1;fontColor=#000000;fillColor=#FEEFC9;strokeColor=#FEEFC9;align=center;verticalAlign=middle;fontSize=14;" vertex="1" parent="1">
          <mxGeometry x="305" y="240" width="30" height="40" as="geometry" />
        </mxCell>
        <mxCell id="pGtb-EO9effSShoh3hVW-17" value="&lt;div style=&quot;font-size: 14px;&quot;&gt;A1&lt;/div&gt;" style="rounded=0;whiteSpace=wrap;html=1;fontColor=#000000;fillColor=#D5F1FF;strokeColor=#D5F1FF;align=center;verticalAlign=middle;fontSize=14;" vertex="1" parent="1">
          <mxGeometry x="355" y="240" width="30" height="40" as="geometry" />
        </mxCell>
        <mxCell id="pGtb-EO9effSShoh3hVW-18" value="&lt;div style=&quot;font-size: 14px;&quot;&gt;A2&lt;/div&gt;" style="rounded=0;whiteSpace=wrap;html=1;fontColor=#000000;fillColor=#D5F1FF;strokeColor=#D5F1FF;align=center;verticalAlign=middle;fontSize=14;" vertex="1" parent="1">
          <mxGeometry x="395" y="240" width="30" height="40" as="geometry" />
        </mxCell>
        <mxCell id="pGtb-EO9effSShoh3hVW-19" value="&lt;div style=&quot;font-size: 14px;&quot;&gt;...&lt;/div&gt;" style="rounded=0;whiteSpace=wrap;html=1;fontColor=#000000;fillColor=#D5F1FF;strokeColor=#D5F1FF;align=center;verticalAlign=middle;fontSize=14;" vertex="1" parent="1">
          <mxGeometry x="435" y="240" width="30" height="40" as="geometry" />
        </mxCell>
        <mxCell id="pGtb-EO9effSShoh3hVW-20" value="&lt;div style=&quot;font-size: 14px;&quot;&gt;U1&lt;/div&gt;" style="rounded=0;whiteSpace=wrap;html=1;fontColor=#000000;fillColor=#C1E5FF;strokeColor=#C1E5FF;align=center;verticalAlign=middle;fontSize=14;" vertex="1" parent="1">
          <mxGeometry x="485" y="240" width="30" height="40" as="geometry" />
        </mxCell>
        <mxCell id="pGtb-EO9effSShoh3hVW-21" value="&lt;div style=&quot;font-size: 14px;&quot;&gt;U2&lt;/div&gt;" style="rounded=0;whiteSpace=wrap;html=1;fontColor=#000000;fillColor=#C1E5FF;strokeColor=#C1E5FF;align=center;verticalAlign=middle;fontSize=14;" vertex="1" parent="1">
          <mxGeometry x="525" y="240" width="30" height="40" as="geometry" />
        </mxCell>
        <mxCell id="pGtb-EO9effSShoh3hVW-22" value="&lt;div style=&quot;font-size: 14px;&quot;&gt;...&lt;/div&gt;" style="rounded=0;whiteSpace=wrap;html=1;fontColor=#000000;fillColor=#C1E5FF;strokeColor=#C1E5FF;align=center;verticalAlign=middle;fontSize=14;" vertex="1" parent="1">
          <mxGeometry x="565" y="240" width="30" height="40" as="geometry" />
        </mxCell>
        <mxCell id="pGtb-EO9effSShoh3hVW-23" value="&lt;div style=&quot;font-size: 14px;&quot;&gt;T1&lt;/div&gt;" style="rounded=0;whiteSpace=wrap;html=1;fontColor=#000000;fillColor=#FEDCC6;strokeColor=#FEDCC6;align=center;verticalAlign=middle;fontSize=14;" vertex="1" parent="1">
          <mxGeometry x="615" y="240" width="30" height="40" as="geometry" />
        </mxCell>
        <mxCell id="pGtb-EO9effSShoh3hVW-24" value="&lt;div style=&quot;font-size: 14px;&quot;&gt;T2&lt;/div&gt;" style="rounded=0;whiteSpace=wrap;html=1;fontColor=#000000;fillColor=#FEDCC6;strokeColor=#FEDCC6;align=center;verticalAlign=middle;fontSize=14;" vertex="1" parent="1">
          <mxGeometry x="655" y="240" width="30" height="40" as="geometry" />
        </mxCell>
        <mxCell id="pGtb-EO9effSShoh3hVW-25" value="&lt;div style=&quot;font-size: 14px;&quot;&gt;...&lt;/div&gt;" style="rounded=0;whiteSpace=wrap;html=1;fontColor=#000000;fillColor=#FEDCC6;strokeColor=#FEDCC6;align=center;verticalAlign=middle;fontSize=14;" vertex="1" parent="1">
          <mxGeometry x="695" y="240" width="30" height="40" as="geometry" />
        </mxCell>
        <mxCell id="pGtb-EO9effSShoh3hVW-26" value="&lt;div style=&quot;font-size: 14px;&quot;&gt;C1&lt;/div&gt;" style="rounded=0;whiteSpace=wrap;html=1;fontColor=#000000;fillColor=#F2BBFA;strokeColor=#F2BBFA;align=center;verticalAlign=middle;fontSize=14;" vertex="1" parent="1">
          <mxGeometry x="745" y="240" width="30" height="40" as="geometry" />
        </mxCell>
        <mxCell id="pGtb-EO9effSShoh3hVW-27" value="&lt;div style=&quot;font-size: 14px;&quot;&gt;C2&lt;/div&gt;" style="rounded=0;whiteSpace=wrap;html=1;fontColor=#000000;fillColor=#F2BBFA;strokeColor=#F2BBFA;align=center;verticalAlign=middle;fontSize=14;" vertex="1" parent="1">
          <mxGeometry x="785" y="240" width="30" height="40" as="geometry" />
        </mxCell>
        <mxCell id="pGtb-EO9effSShoh3hVW-28" value="&lt;div style=&quot;font-size: 14px;&quot;&gt;...&lt;/div&gt;" style="rounded=0;whiteSpace=wrap;html=1;fontColor=#000000;fillColor=#F2BBFA;strokeColor=#F2BBFA;align=center;verticalAlign=middle;fontSize=14;" vertex="1" parent="1">
          <mxGeometry x="825" y="240" width="30" height="40" as="geometry" />
        </mxCell>
        <mxCell id="pGtb-EO9effSShoh3hVW-29" value="" style="endArrow=block;html=1;rounded=0;strokeWidth=5;strokeColor=#C2C2C2;endFill=1;startArrow=block;startFill=1;" edge="1" parent="1">
          <mxGeometry width="50" height="50" relative="1" as="geometry">
            <mxPoint x="900" y="30" as="sourcePoint" />
            <mxPoint x="900" y="320" as="targetPoint" />
          </mxGeometry>
        </mxCell>
        <mxCell id="pGtb-EO9effSShoh3hVW-30" value="Technology-&lt;br&gt;agnostic&lt;br&gt;concepts" style="text;html=1;strokeColor=none;fillColor=none;align=center;verticalAlign=middle;whiteSpace=wrap;rounded=0;fontColor=#737373;fontSize=16;" vertex="1" parent="1">
          <mxGeometry x="910" y="130" width="100" height="90" as="geometry" />
        </mxCell>
        <mxCell id="pGtb-EO9effSShoh3hVW-31" value="" style="endArrow=none;html=1;rounded=0;strokeWidth=5;strokeColor=#C2C2C2;endFill=0;startArrow=none;startFill=0;" edge="1" parent="1">
          <mxGeometry width="50" height="50" relative="1" as="geometry">
            <mxPoint x="180" y="333" as="sourcePoint" />
            <mxPoint x="870" y="333" as="targetPoint" />
          </mxGeometry>
        </mxCell>
        <mxCell id="pGtb-EO9effSShoh3hVW-32" value="Capabilities" style="text;html=1;strokeColor=none;fillColor=none;align=left;verticalAlign=middle;whiteSpace=wrap;rounded=0;fontColor=#737373;fontSize=19;" vertex="1" parent="1">
          <mxGeometry x="40" y="313.5" width="130" height="36.5" as="geometry" />
        </mxCell>
        <mxCell id="pGtb-EO9effSShoh3hVW-33" style="edgeStyle=none;shape=connector;rounded=0;orthogonalLoop=1;jettySize=auto;html=1;entryX=0.5;entryY=0;entryDx=0;entryDy=0;labelBackgroundColor=default;strokeColor=#C2C2C2;strokeWidth=3;align=center;verticalAlign=middle;fontFamily=Helvetica;fontSize=11;fontColor=default;startArrow=none;startFill=0;endArrow=none;endFill=0;" edge="1" parent="1" target="pGtb-EO9effSShoh3hVW-12">
          <mxGeometry relative="1" as="geometry">
            <mxPoint x="150" y="130" as="sourcePoint" />
            <mxPoint x="120" y="250" as="targetPoint" />
          </mxGeometry>
        </mxCell>
        <mxCell id="pGtb-EO9effSShoh3hVW-34" style="edgeStyle=none;shape=connector;rounded=0;orthogonalLoop=1;jettySize=auto;html=1;entryX=0.5;entryY=0;entryDx=0;entryDy=0;labelBackgroundColor=default;strokeColor=#C2C2C2;strokeWidth=3;align=center;verticalAlign=middle;fontFamily=Helvetica;fontSize=11;fontColor=default;startArrow=none;startFill=0;endArrow=none;endFill=0;exitX=0.5;exitY=1;exitDx=0;exitDy=0;" edge="1" parent="1" source="pGtb-EO9effSShoh3hVW-5" target="pGtb-EO9effSShoh3hVW-13">
          <mxGeometry relative="1" as="geometry">
            <mxPoint x="161" y="150" as="sourcePoint" />
            <mxPoint x="130" y="260" as="targetPoint" />
          </mxGeometry>
        </mxCell>
        <mxCell id="pGtb-EO9effSShoh3hVW-35" style="edgeStyle=none;shape=connector;rounded=0;orthogonalLoop=1;jettySize=auto;html=1;entryX=0.5;entryY=0;entryDx=0;entryDy=0;labelBackgroundColor=default;strokeColor=#C2C2C2;strokeWidth=3;align=center;verticalAlign=middle;fontFamily=Helvetica;fontSize=11;fontColor=default;startArrow=none;startFill=0;endArrow=none;endFill=0;" edge="1" parent="1">
          <mxGeometry relative="1" as="geometry">
            <mxPoint x="280" y="130" as="sourcePoint" />
            <mxPoint x="240" y="240" as="targetPoint" />
          </mxGeometry>
        </mxCell>
        <mxCell id="pGtb-EO9effSShoh3hVW-36" style="edgeStyle=none;shape=connector;rounded=0;orthogonalLoop=1;jettySize=auto;html=1;entryX=0.5;entryY=0;entryDx=0;entryDy=0;labelBackgroundColor=default;strokeColor=#C2C2C2;strokeWidth=3;align=center;verticalAlign=middle;fontFamily=Helvetica;fontSize=11;fontColor=default;startArrow=none;startFill=0;endArrow=none;endFill=0;" edge="1" parent="1">
          <mxGeometry relative="1" as="geometry">
            <mxPoint x="280" y="130" as="sourcePoint" />
            <mxPoint x="280" y="240" as="targetPoint" />
          </mxGeometry>
        </mxCell>
        <mxCell id="pGtb-EO9effSShoh3hVW-37" style="edgeStyle=none;shape=connector;rounded=0;orthogonalLoop=1;jettySize=auto;html=1;entryX=0.5;entryY=0;entryDx=0;entryDy=0;labelBackgroundColor=default;strokeColor=#C2C2C2;strokeWidth=3;align=center;verticalAlign=middle;fontFamily=Helvetica;fontSize=11;fontColor=default;startArrow=none;startFill=0;endArrow=none;endFill=0;exitX=0.5;exitY=1;exitDx=0;exitDy=0;" edge="1" parent="1">
          <mxGeometry relative="1" as="geometry">
            <mxPoint x="280" y="130" as="sourcePoint" />
            <mxPoint x="320" y="240" as="targetPoint" />
          </mxGeometry>
        </mxCell>
        <mxCell id="pGtb-EO9effSShoh3hVW-38" style="edgeStyle=none;shape=connector;rounded=0;orthogonalLoop=1;jettySize=auto;html=1;entryX=0.5;entryY=0;entryDx=0;entryDy=0;labelBackgroundColor=default;strokeColor=#C2C2C2;strokeWidth=3;align=center;verticalAlign=middle;fontFamily=Helvetica;fontSize=11;fontColor=default;startArrow=none;startFill=0;endArrow=none;endFill=0;" edge="1" parent="1">
          <mxGeometry relative="1" as="geometry">
            <mxPoint x="410" y="130" as="sourcePoint" />
            <mxPoint x="370" y="240" as="targetPoint" />
          </mxGeometry>
        </mxCell>
        <mxCell id="pGtb-EO9effSShoh3hVW-39" style="edgeStyle=none;shape=connector;rounded=0;orthogonalLoop=1;jettySize=auto;html=1;entryX=0.5;entryY=0;entryDx=0;entryDy=0;labelBackgroundColor=default;strokeColor=#C2C2C2;strokeWidth=3;align=center;verticalAlign=middle;fontFamily=Helvetica;fontSize=11;fontColor=default;startArrow=none;startFill=0;endArrow=none;endFill=0;" edge="1" parent="1">
          <mxGeometry relative="1" as="geometry">
            <mxPoint x="410" y="130" as="sourcePoint" />
            <mxPoint x="410" y="240" as="targetPoint" />
          </mxGeometry>
        </mxCell>
        <mxCell id="pGtb-EO9effSShoh3hVW-40" style="edgeStyle=none;shape=connector;rounded=0;orthogonalLoop=1;jettySize=auto;html=1;entryX=0.5;entryY=0;entryDx=0;entryDy=0;labelBackgroundColor=default;strokeColor=#C2C2C2;strokeWidth=3;align=center;verticalAlign=middle;fontFamily=Helvetica;fontSize=11;fontColor=default;startArrow=none;startFill=0;endArrow=none;endFill=0;exitX=0.5;exitY=1;exitDx=0;exitDy=0;" edge="1" parent="1">
          <mxGeometry relative="1" as="geometry">
            <mxPoint x="410" y="130" as="sourcePoint" />
            <mxPoint x="450" y="240" as="targetPoint" />
          </mxGeometry>
        </mxCell>
        <mxCell id="pGtb-EO9effSShoh3hVW-41" style="edgeStyle=none;shape=connector;rounded=0;orthogonalLoop=1;jettySize=auto;html=1;entryX=0.5;entryY=0;entryDx=0;entryDy=0;labelBackgroundColor=default;strokeColor=#C2C2C2;strokeWidth=3;align=center;verticalAlign=middle;fontFamily=Helvetica;fontSize=11;fontColor=default;startArrow=none;startFill=0;endArrow=none;endFill=0;" edge="1" parent="1">
          <mxGeometry relative="1" as="geometry">
            <mxPoint x="540" y="130" as="sourcePoint" />
            <mxPoint x="500" y="240" as="targetPoint" />
          </mxGeometry>
        </mxCell>
        <mxCell id="pGtb-EO9effSShoh3hVW-42" style="edgeStyle=none;shape=connector;rounded=0;orthogonalLoop=1;jettySize=auto;html=1;entryX=0.5;entryY=0;entryDx=0;entryDy=0;labelBackgroundColor=default;strokeColor=#C2C2C2;strokeWidth=3;align=center;verticalAlign=middle;fontFamily=Helvetica;fontSize=11;fontColor=default;startArrow=none;startFill=0;endArrow=none;endFill=0;" edge="1" parent="1">
          <mxGeometry relative="1" as="geometry">
            <mxPoint x="540" y="130" as="sourcePoint" />
            <mxPoint x="540" y="240" as="targetPoint" />
          </mxGeometry>
        </mxCell>
        <mxCell id="pGtb-EO9effSShoh3hVW-43" style="edgeStyle=none;shape=connector;rounded=0;orthogonalLoop=1;jettySize=auto;html=1;entryX=0.5;entryY=0;entryDx=0;entryDy=0;labelBackgroundColor=default;strokeColor=#C2C2C2;strokeWidth=3;align=center;verticalAlign=middle;fontFamily=Helvetica;fontSize=11;fontColor=default;startArrow=none;startFill=0;endArrow=none;endFill=0;exitX=0.5;exitY=1;exitDx=0;exitDy=0;" edge="1" parent="1">
          <mxGeometry relative="1" as="geometry">
            <mxPoint x="540" y="130" as="sourcePoint" />
            <mxPoint x="580" y="240" as="targetPoint" />
          </mxGeometry>
        </mxCell>
        <mxCell id="pGtb-EO9effSShoh3hVW-44" style="edgeStyle=none;shape=connector;rounded=0;orthogonalLoop=1;jettySize=auto;html=1;entryX=0.5;entryY=0;entryDx=0;entryDy=0;labelBackgroundColor=default;strokeColor=#C2C2C2;strokeWidth=3;align=center;verticalAlign=middle;fontFamily=Helvetica;fontSize=11;fontColor=default;startArrow=none;startFill=0;endArrow=none;endFill=0;" edge="1" parent="1">
          <mxGeometry relative="1" as="geometry">
            <mxPoint x="675" y="130" as="sourcePoint" />
            <mxPoint x="635" y="240" as="targetPoint" />
          </mxGeometry>
        </mxCell>
        <mxCell id="pGtb-EO9effSShoh3hVW-45" style="edgeStyle=none;shape=connector;rounded=0;orthogonalLoop=1;jettySize=auto;html=1;entryX=0.5;entryY=0;entryDx=0;entryDy=0;labelBackgroundColor=default;strokeColor=#C2C2C2;strokeWidth=3;align=center;verticalAlign=middle;fontFamily=Helvetica;fontSize=11;fontColor=default;startArrow=none;startFill=0;endArrow=none;endFill=0;" edge="1" parent="1">
          <mxGeometry relative="1" as="geometry">
            <mxPoint x="675" y="130" as="sourcePoint" />
            <mxPoint x="675" y="240" as="targetPoint" />
          </mxGeometry>
        </mxCell>
        <mxCell id="pGtb-EO9effSShoh3hVW-46" style="edgeStyle=none;shape=connector;rounded=0;orthogonalLoop=1;jettySize=auto;html=1;entryX=0.5;entryY=0;entryDx=0;entryDy=0;labelBackgroundColor=default;strokeColor=#C2C2C2;strokeWidth=3;align=center;verticalAlign=middle;fontFamily=Helvetica;fontSize=11;fontColor=default;startArrow=none;startFill=0;endArrow=none;endFill=0;exitX=0.5;exitY=1;exitDx=0;exitDy=0;" edge="1" parent="1">
          <mxGeometry relative="1" as="geometry">
            <mxPoint x="675" y="130" as="sourcePoint" />
            <mxPoint x="715" y="240" as="targetPoint" />
          </mxGeometry>
        </mxCell>
        <mxCell id="pGtb-EO9effSShoh3hVW-47" style="edgeStyle=none;shape=connector;rounded=0;orthogonalLoop=1;jettySize=auto;html=1;entryX=0.5;entryY=0;entryDx=0;entryDy=0;labelBackgroundColor=default;strokeColor=#C2C2C2;strokeWidth=3;align=center;verticalAlign=middle;fontFamily=Helvetica;fontSize=11;fontColor=default;startArrow=none;startFill=0;endArrow=none;endFill=0;" edge="1" parent="1">
          <mxGeometry relative="1" as="geometry">
            <mxPoint x="800" y="130" as="sourcePoint" />
            <mxPoint x="760" y="240" as="targetPoint" />
          </mxGeometry>
        </mxCell>
        <mxCell id="pGtb-EO9effSShoh3hVW-48" style="edgeStyle=none;shape=connector;rounded=0;orthogonalLoop=1;jettySize=auto;html=1;entryX=0.5;entryY=0;entryDx=0;entryDy=0;labelBackgroundColor=default;strokeColor=#C2C2C2;strokeWidth=3;align=center;verticalAlign=middle;fontFamily=Helvetica;fontSize=11;fontColor=default;startArrow=none;startFill=0;endArrow=none;endFill=0;" edge="1" parent="1">
          <mxGeometry relative="1" as="geometry">
            <mxPoint x="800" y="130" as="sourcePoint" />
            <mxPoint x="800" y="240" as="targetPoint" />
          </mxGeometry>
        </mxCell>
        <mxCell id="pGtb-EO9effSShoh3hVW-49" style="edgeStyle=none;shape=connector;rounded=0;orthogonalLoop=1;jettySize=auto;html=1;entryX=0.5;entryY=0;entryDx=0;entryDy=0;labelBackgroundColor=default;strokeColor=#C2C2C2;strokeWidth=3;align=center;verticalAlign=middle;fontFamily=Helvetica;fontSize=11;fontColor=default;startArrow=none;startFill=0;endArrow=none;endFill=0;exitX=0.5;exitY=1;exitDx=0;exitDy=0;" edge="1" parent="1">
          <mxGeometry relative="1" as="geometry">
            <mxPoint x="800" y="130" as="sourcePoint" />
            <mxPoint x="840" y="240" as="targetPoint" />
          </mxGeometry>
        </mxCell>
        <mxCell id="pGtb-EO9effSShoh3hVW-50" value="" style="endArrow=block;html=1;rounded=0;strokeWidth=5;strokeColor=#C2C2C2;endFill=1;startArrow=block;startFill=1;" edge="1" parent="1">
          <mxGeometry width="50" height="50" relative="1" as="geometry">
            <mxPoint x="900" y="353.5" as="sourcePoint" />
            <mxPoint x="900" y="470" as="targetPoint" />
          </mxGeometry>
        </mxCell>
        <mxCell id="pGtb-EO9effSShoh3hVW-51" value="Technologies" style="text;html=1;strokeColor=none;fillColor=none;align=center;verticalAlign=middle;whiteSpace=wrap;rounded=0;fontColor=#737373;fontSize=16;" vertex="1" parent="1">
          <mxGeometry x="920" y="369" width="100" height="90" as="geometry" />
        </mxCell>
        <mxCell id="pGtb-EO9effSShoh3hVW-52" value="Customer context" style="text;html=1;strokeColor=none;fillColor=none;align=center;verticalAlign=middle;whiteSpace=wrap;rounded=0;fontColor=#737373;fontSize=16;" vertex="1" parent="1">
          <mxGeometry x="325" y="443.5" width="350" height="30" as="geometry" />
        </mxCell>
      </root>
    </mxGraphModel>
  </diagram>
</mxfile>
